<svg xmlns="http://www.w3.org/2000/svg" viewBox="0 0 500 657"><defs><style>.cls-22,.cls-23{fill:none}.cls-4{fill:#26a0dd}.cls-5{fill:#ef9426}.cls-6{fill:#efefef}.cls-7{fill:#fff}.cls-8{fill:#191c2d}.cls-9{fill:#272a44}.cls-11{fill:#1a96c6}.cls-12{fill:#414556}.cls-13{fill:#c1c4d3}.cls-14{fill:#dadcea}.cls-21{fill:#d7cdcd}.cls-22,.cls-23{stroke:#fff}.cls-22{stroke-miterlimit:10}.cls-23{stroke-linecap:round;stroke-linejoin:round}</style><clipPath id="clip-path" transform="translate(0 157)"><path id="_Rectángulo_" data-name="&lt;Rectángulo&gt;" fill="none" d="M0 0h500v306H0z"/></clipPath></defs><g style="isolation:isolate"><g id="BACKGROUND"><path id="_Rectángulo_2" data-name="&lt;Rectángulo&gt;" fill="#4abcf4" d="M0 157h500v500H0z"/></g><g id="OBJECTS"><path id="_Trazado_" data-name="&lt;Trazado&gt;" class="cls-4" d="M416 279H266v1h-3l-56 25-5 2c-3 2-1 3 3 3h45c-19 7-33 9-33 9h-1c-1 0 0 0 0 0h71c1 0-7-2 9-10h44l14-2 60-27 2-1z" transform="translate(0 157)"/><g id="_Grupo_" data-name="&lt;Grupo&gt;"><path id="_Trazado_2" data-name="&lt;Trazado&gt;" class="cls-4" d="M435 290h-5a2 2 0 0 1 4 0z" transform="translate(0 157)"/><path id="_Trazado_3" data-name="&lt;Trazado&gt;" class="cls-4" d="M430 320h7l-1-1 37-18h-86 1-3l-37 18a11 11 0 0 0-3 1h6l-1-1h1l29-14h83l-29 14h-1a11 11 0 0 0-2 1z" transform="translate(0 157)"/><g id="_Grupo_2" data-name="&lt;Grupo&gt;"><g id="_Grupo_3" data-name="&lt;Grupo&gt;"><path id="_Trazado_4" data-name="&lt;Trazado&gt;" class="cls-5" d="M348 450h5l-5-5v5z"/><path id="_Trazado_5" data-name="&lt;Trazado&gt;" class="cls-6" d="M348 444v1l5 5h5l-5-6h-5z"/><path id="_Trazado_6" data-name="&lt;Trazado&gt;" class="cls-5" d="M353 444l5 6h5l-5-6h-5z"/><path id="_Trazado_7" data-name="&lt;Trazado&gt;" class="cls-6" d="M358 444l5 6h6l-5-6h-6z"/><path id="_Trazado_8" data-name="&lt;Trazado&gt;" class="cls-5" d="M364 444l5 6h5l-5-6h-5z"/><path id="_Trazado_9" data-name="&lt;Trazado&gt;" class="cls-6" d="M369 444l5 6h5l-5-6h-5z"/><path id="_Trazado_10" data-name="&lt;Trazado&gt;" class="cls-5" d="M374 444l5 6h6l-5-6h-6z"/><path id="_Trazado_11" data-name="&lt;Trazado&gt;" class="cls-6" d="M380 444l5 6h5l-5-6h-5z"/><path id="_Trazado_12" data-name="&lt;Trazado&gt;" class="cls-5" d="M385 444l5 6h5l-5-6h-5z"/><path id="_Trazado_13" data-name="&lt;Trazado&gt;" class="cls-6" d="M390 444l5 6h6l-5-6h-6z"/><path id="_Trazado_14" data-name="&lt;Trazado&gt;" class="cls-5" d="M396 444l5 6h5l-5-6h-5z"/><path id="_Trazado_15" data-name="&lt;Trazado&gt;" class="cls-6" d="M401 444l5 6h5l-5-6h-5z"/><path id="_Trazado_16" data-name="&lt;Trazado&gt;" class="cls-5" d="M406 444l5 6h6l-5-6h-6z"/><path id="_Trazado_17" data-name="&lt;Trazado&gt;" class="cls-6" d="M412 444l5 6h5l-5-6h-5z"/><path id="_Trazado_18" data-name="&lt;Trazado&gt;" class="cls-5" d="M417 444l5 6h5l-5-6h-5z"/><path id="_Trazado_19" data-name="&lt;Trazado&gt;" class="cls-6" d="M422 444l5 6h6l-5-6h-6z"/><path id="_Trazado_20" data-name="&lt;Trazado&gt;" class="cls-5" d="M428 444l5 6h1v-5l-1-1h-5z"/><path id="_Trazado_21" data-name="&lt;Trazado&gt;" class="cls-7" d="M434 445v-1h-1l1 1z"/></g><g id="_Grupo_4" data-name="&lt;Grupo&gt;"><g id="_Grupo_5" data-name="&lt;Grupo&gt;"><path id="_Trazado_22" data-name="&lt;Trazado&gt;" class="cls-8" d="M347 443h3v33h-3z"/></g><g id="_Grupo_6" data-name="&lt;Grupo&gt;"><path id="_Trazado_23" data-name="&lt;Trazado&gt;" class="cls-9" d="M347 443h1v33h-1z"/></g><path id="_Trazado_24" data-name="&lt;Trazado&gt;" class="cls-9" d="M352 320h-7a1 1 0 0 1 1-1h5a1 1 0 0 1 0 1z" transform="translate(0 157)"/></g><g id="_Grupo_7" data-name="&lt;Grupo&gt;"><g id="_Grupo_8" data-name="&lt;Grupo&gt;"><path id="_Trazado_25" data-name="&lt;Trazado&gt;" class="cls-8" d="M433 443h3v33h-3z"/></g><g id="_Grupo_9" data-name="&lt;Grupo&gt;"><path id="_Trazado_26" data-name="&lt;Trazado&gt;" class="cls-9" d="M433 443h1v33h-1z"/></g><path id="_Trazado_27" data-name="&lt;Trazado&gt;" class="cls-9" d="M437 320h-6a1 1 0 0 1 0-1h5a1 1 0 0 1 1 1z" transform="translate(0 157)"/></g></g></g><g id="_Grupo_10" data-name="&lt;Grupo&gt;"><path id="_Trazado_28" data-name="&lt;Trazado&gt;" class="cls-4" d="M163 290h-5a2 2 0 0 1 5 0z" transform="translate(0 157)"/><path id="_Trazado_29" data-name="&lt;Trazado&gt;" class="cls-4" d="M158 320h7l-1-1 42-18h-88l-42 18a12 12 0 0 0-3 1h6l-1-1 34-14h83l-34 14a12 12 0 0 0-3 1z" transform="translate(0 157)"/><g id="_Grupo_11" data-name="&lt;Grupo&gt;"><g id="_Grupo_12" data-name="&lt;Grupo&gt;"><path id="_Trazado_30" data-name="&lt;Trazado&gt;" class="cls-5" d="M76 450h5l-5-5v5z"/><path id="_Trazado_31" data-name="&lt;Trazado&gt;" class="cls-6" d="M76 444v1l5 5h5l-5-6h-5z"/><path id="_Trazado_32" data-name="&lt;Trazado&gt;" class="cls-5" d="M81 444l5 6h5l-5-6h-5z"/><path id="_Trazado_33" data-name="&lt;Trazado&gt;" class="cls-6" d="M86 444l5 6h6l-5-6h-6z"/><path id="_Trazado_34" data-name="&lt;Trazado&gt;" class="cls-5" d="M92 444l5 6h5l-5-6h-5z"/><path id="_Trazado_35" data-name="&lt;Trazado&gt;" class="cls-6" d="M97 444l5 6h5l-5-6h-5z"/><path id="_Trazado_36" data-name="&lt;Trazado&gt;" class="cls-5" d="M102 444l5 6h6l-5-6h-6z"/><path id="_Trazado_37" data-name="&lt;Trazado&gt;" class="cls-6" d="M108 444l5 6h5l-5-6h-5z"/><path id="_Trazado_38" data-name="&lt;Trazado&gt;" class="cls-5" d="M113 444l5 6h5l-5-6h-5z"/><path id="_Trazado_39" data-name="&lt;Trazado&gt;" class="cls-6" d="M118 444l5 6h6l-5-6h-6z"/><path id="_Trazado_40" data-name="&lt;Trazado&gt;" class="cls-5" d="M124 444l5 6h5l-5-6h-5z"/><path id="_Trazado_41" data-name="&lt;Trazado&gt;" class="cls-6" d="M129 444l5 6h5l-5-6h-5z"/><path id="_Trazado_42" data-name="&lt;Trazado&gt;" class="cls-5" d="M134 444l5 6h6l-5-6h-6z"/><path id="_Trazado_43" data-name="&lt;Trazado&gt;" class="cls-6" d="M140 444l5 6h5l-5-6h-5z"/><path id="_Trazado_44" data-name="&lt;Trazado&gt;" class="cls-5" d="M145 444l5 6h5l-5-6h-5z"/><path id="_Trazado_45" data-name="&lt;Trazado&gt;" class="cls-6" d="M150 444l5 6h6l-5-6h-6z"/><path id="_Trazado_46" data-name="&lt;Trazado&gt;" class="cls-5" d="M156 444l5 6h1v-5l-1-1h-5z"/><path id="_Trazado_47" data-name="&lt;Trazado&gt;" class="cls-7" d="M162 445v-1h-1l1 1z"/></g><g id="_Grupo_13" data-name="&lt;Grupo&gt;"><g id="_Grupo_14" data-name="&lt;Grupo&gt;"><path id="_Trazado_48" data-name="&lt;Trazado&gt;" class="cls-8" d="M75 443h3v33h-3z"/></g><g id="_Grupo_15" data-name="&lt;Grupo&gt;"><path id="_Trazado_49" data-name="&lt;Trazado&gt;" class="cls-9" d="M75 443h1v33h-1z"/></g><path id="_Trazado_50" data-name="&lt;Trazado&gt;" class="cls-9" d="M80 320h-7a1 1 0 0 1 1-1h5a1 1 0 0 1 0 1z" transform="translate(0 157)"/></g><g id="_Grupo_16" data-name="&lt;Grupo&gt;"><g id="_Grupo_17" data-name="&lt;Grupo&gt;"><path id="_Trazado_51" data-name="&lt;Trazado&gt;" class="cls-8" d="M161 443h3v33h-3z"/></g><g id="_Grupo_18" data-name="&lt;Grupo&gt;"><path id="_Trazado_52" data-name="&lt;Trazado&gt;" class="cls-9" d="M161 443h1v33h-1z"/></g><path id="_Trazado_53" data-name="&lt;Trazado&gt;" class="cls-9" d="M165 320h-7a1 1 0 0 1 1-1h5a1 1 0 0 1 1 1z" transform="translate(0 157)"/></g></g></g><g clip-path="url(#clip-path)" id="_Recortar_grupo_" data-name="&lt;Recortar grupo&gt;"><g id="_Grupo_19" data-name="&lt;Grupo&gt;"><path id="_Trazado_54" data-name="&lt;Trazado&gt;" class="cls-4" d="M424 262H77a2 2 0 0 1-2-2 2 2 0 0 1 2-2h347a2 2 0 0 1 2 2 2 2 0 0 1-2 2z" transform="translate(0 157)"/><g id="_Grupo_20" data-name="&lt;Grupo&gt;"><g id="_Grupo_21" data-name="&lt;Grupo&gt;"><g id="_Grupo_22" data-name="&lt;Grupo&gt;"><path id="_Rectángulo_3" data-name="&lt;Rectángulo&gt;" class="cls-4" d="M152 126h6v253h-6z"/><path id="_Rectángulo_4" data-name="&lt;Rectángulo&gt;" class="cls-4" d="M186 126h6v253h-6z"/></g><g id="_Grupo_23" data-name="&lt;Grupo&gt;"><g id="_Grupo_24" data-name="&lt;Grupo&gt;"><path id="_Rectángulo_5" data-name="&lt;Rectángulo&gt;" class="cls-4" transform="rotate(-45 362 70)" d="M171-32h3v46h-3z"/><path id="_Rectángulo_6" data-name="&lt;Rectángulo&gt;" class="cls-4" transform="rotate(-135 205 70)" d="M171-32h3v46h-3z"/></g><g id="_Grupo_25" data-name="&lt;Grupo&gt;"><path id="_Rectángulo_7" data-name="&lt;Rectángulo&gt;" class="cls-4" transform="rotate(-45 362 100)" d="M171-1h3v46h-3z"/><path id="_Rectángulo_8" data-name="&lt;Rectángulo&gt;" class="cls-4" transform="rotate(-135 205 100)" d="M171-1h3v46h-3z"/></g><g id="_Grupo_26" data-name="&lt;Grupo&gt;"><path id="_Rectángulo_9" data-name="&lt;Rectángulo&gt;" class="cls-4" transform="rotate(-45 362 130)" d="M171 29h3v46h-3z"/><path id="_Rectángulo_10" data-name="&lt;Rectángulo&gt;" class="cls-4" transform="rotate(-135 205 130)" d="M171 29h3v46h-3z"/></g><g id="_Grupo_27" data-name="&lt;Grupo&gt;"><path id="_Rectángulo_11" data-name="&lt;Rectángulo&gt;" class="cls-4" transform="rotate(-45 362 161)" d="M171 59h3v46h-3z"/><path id="_Rectángulo_12" data-name="&lt;Rectángulo&gt;" class="cls-4" transform="rotate(-135 205 161)" d="M171 59h3v46h-3z"/></g><g id="_Grupo_28" data-name="&lt;Grupo&gt;"><path id="_Rectángulo_13" data-name="&lt;Rectángulo&gt;" class="cls-4" transform="rotate(-45 362 191)" d="M171 90h3v46h-3z"/><path id="_Rectángulo_14" data-name="&lt;Rectángulo&gt;" class="cls-4" transform="rotate(-135 205 191)" d="M171 90h3v46h-3z"/></g><g id="_Grupo_29" data-name="&lt;Grupo&gt;"><path id="_Rectángulo_15" data-name="&lt;Rectángulo&gt;" class="cls-4" transform="rotate(-45 362 221)" d="M171 120h3v46h-3z"/><path id="_Rectángulo_16" data-name="&lt;Rectángulo&gt;" class="cls-4" transform="rotate(-135 205 221)" d="M171 120h3v46h-3z"/></g><g id="_Grupo_30" data-name="&lt;Grupo&gt;"><path id="_Rectángulo_17" data-name="&lt;Rectángulo&gt;" class="cls-4" transform="rotate(-45 362 252)" d="M171 150h3v46h-3z"/><path id="_Rectángulo_18" data-name="&lt;Rectángulo&gt;" class="cls-4" transform="rotate(-135 205 252)" d="M171 150h3v46h-3z"/></g><g id="_Grupo_31" data-name="&lt;Grupo&gt;"><path id="_Rectángulo_19" data-name="&lt;Rectángulo&gt;" class="cls-4" transform="rotate(-45 362 282)" d="M171 181h3v46h-3z"/><path id="_Rectángulo_20" data-name="&lt;Rectángulo&gt;" class="cls-4" transform="rotate(-135 205 282)" d="M171 181h3v46h-3z"/></g></g></g><g id="_Grupo_32" data-name="&lt;Grupo&gt;"><g id="_Grupo_33" data-name="&lt;Grupo&gt;"><path id="_Rectángulo_21" data-name="&lt;Rectángulo&gt;" class="cls-4" d="M189 126h4v253h-4z"/><path id="_Rectángulo_22" data-name="&lt;Rectángulo&gt;" class="cls-4" d="M207 126h4v253h-4z"/></g><g id="_Grupo_34" data-name="&lt;Grupo&gt;"><g id="_Grupo_35" data-name="&lt;Grupo&gt;"><path id="_Trazado_55" data-name="&lt;Trazado&gt;" class="cls-4" d="M209 163l-1 2-18-32 1-2 18 32z"/><path id="_Trazado_56" data-name="&lt;Trazado&gt;" class="cls-4" d="M190 163l1 2 18-32-1-2-18 32z"/></g><g id="_Grupo_36" data-name="&lt;Grupo&gt;"><path id="_Trazado_57" data-name="&lt;Trazado&gt;" class="cls-4" d="M209 194l-1 2-18-32 1-3 18 33z"/><path id="_Trazado_58" data-name="&lt;Trazado&gt;" class="cls-4" d="M190 194l1 2 18-32-1-3-18 33z"/></g><g id="_Grupo_37" data-name="&lt;Grupo&gt;"><path id="_Trazado_59" data-name="&lt;Trazado&gt;" class="cls-4" d="M209 224l-1 2-18-32 1-2 18 32z"/><path id="_Trazado_60" data-name="&lt;Trazado&gt;" class="cls-4" d="M190 224l1 2 18-32-1-2-18 32z"/></g><g id="_Grupo_38" data-name="&lt;Grupo&gt;"><path id="_Trazado_61" data-name="&lt;Trazado&gt;" class="cls-4" d="M209 254l-1 2-18-32 1-2 18 32z"/><path id="_Trazado_62" data-name="&lt;Trazado&gt;" class="cls-4" d="M190 254l1 2 18-32-1-2-18 32z"/></g><g id="_Grupo_39" data-name="&lt;Grupo&gt;"><path id="_Trazado_63" data-name="&lt;Trazado&gt;" class="cls-4" d="M209 285l-1 2-18-33 1-2 18 33z"/><path id="_Trazado_64" data-name="&lt;Trazado&gt;" class="cls-4" d="M190 285l1 2 18-33-1-2-18 33z"/></g><g id="_Grupo_40" data-name="&lt;Grupo&gt;"><path id="_Trazado_65" data-name="&lt;Trazado&gt;" class="cls-4" d="M209 315l-1 2-18-32 1-2 18 32z"/><path id="_Trazado_66" data-name="&lt;Trazado&gt;" class="cls-4" d="M190 315l1 2 18-32-1-2-18 32z"/></g><g id="_Grupo_41" data-name="&lt;Grupo&gt;"><path id="_Trazado_67" data-name="&lt;Trazado&gt;" class="cls-4" d="M209 345l-1 2-18-32 1-2 18 32z"/><path id="_Trazado_68" data-name="&lt;Trazado&gt;" class="cls-4" d="M190 345l1 2 18-32-1-2-18 32z"/></g><g id="_Grupo_42" data-name="&lt;Grupo&gt;"><path id="_Trazado_69" data-name="&lt;Trazado&gt;" class="cls-4" d="M209 375l-1 3-18-33 1-2 18 32z"/><path id="_Trazado_70" data-name="&lt;Trazado&gt;" class="cls-4" d="M190 375l1 3 18-33-1-2-18 32z"/></g></g></g><path id="_Rectángulo_23" data-name="&lt;Rectángulo&gt;" class="cls-4" d="M146 372h67v48h-67z"/><path id="_Rectángulo_24" data-name="&lt;Rectángulo&gt;" class="cls-4" d="M189 372h25v48h-25z"/><rect id="_Rectángulo_25" data-name="&lt;Rectángulo&gt;" class="cls-4" x="147" y="72" width="70" height="55" rx="4" ry="4"/><rect id="_Rectángulo_26" data-name="&lt;Rectángulo&gt;" class="cls-4" x="184" y="72" width="33" height="55" rx="3" ry="3"/><g id="_Grupo_43" data-name="&lt;Grupo&gt;"><path id="_Trazado_71" data-name="&lt;Trazado&gt;" class="cls-4" d="M209-68v21a4 4 0 0 1 0 2h-17l-1-2v-21l1-3h16l1 3z" transform="translate(0 157)"/><g id="_Grupo_44" data-name="&lt;Grupo&gt;"><path id="_Trazado_72" data-name="&lt;Trazado&gt;" class="cls-4" d="M201 112h-7l-3-6V92l10 20z"/><path id="_Trazado_73" data-name="&lt;Trazado&gt;" class="cls-4" d="M209 112l-12-26h-4l12 26h4z"/></g></g><g id="_Grupo_45" data-name="&lt;Grupo&gt;"><path id="_Trazado_compuesto_" data-name="&lt;Trazado compuesto&gt;" class="cls-4" d="M194-149a9 9 0 0 0-9-8 9 9 0 0 0-9 9 9 9 0 0 0 0 2 9 9 0 0 0 0 2 9 9 0 0 0 1 1 9 9 0 0 0 5 4 9 9 0 0 0 3 0 9 9 0 0 0 4-1 9 9 0 0 0 3-3l1-2a9 9 0 0 0 1-3 8 8 0 0 0 0-1zm-9 5a4 4 0 0 1-3-1 4 4 0 0 1-1-2 4 4 0 0 1-1-1 4 4 0 0 1 1-1 4 4 0 0 1 4-3 4 4 0 0 1 3 2 4 4 0 0 1 1 2 4 4 0 0 1-1 2 4 4 0 0 1-3 2z" transform="translate(0 157)"/><path id="_Trazado_74" data-name="&lt;Trazado&gt;" class="cls-4" d="M375-123l-1 4-181-26h-5a4 4 0 0 0 1-3 4 4 0 0 0 0-2l5 1z" transform="translate(0 157)"/><path id="_Trazado_75" data-name="&lt;Trazado&gt;" class="cls-4" d="M182-145l-4 3h-1l-40 23-2-4 41-24h1l4-2a4 4 0 0 0 0 1 4 4 0 0 0 0 1 4 4 0 0 0 1 2z" transform="translate(0 157)"/><path id="_Trazado_76" data-name="&lt;Trazado&gt;" class="cls-4" d="M182-145v57h-5v-59h4a4 4 0 0 0 1 2z" transform="translate(0 157)"/><path id="_Rectángulo_27" data-name="&lt;Rectángulo&gt;" class="cls-4" d="M189 10h4v59h-4z"/></g><g id="_Grupo_46" data-name="&lt;Grupo&gt;"><g id="_Grupo_47" data-name="&lt;Grupo&gt;"><g id="_Grupo_48" data-name="&lt;Grupo&gt;"><path id="_Rectángulo_28" data-name="&lt;Rectángulo&gt;" class="cls-4" transform="rotate(-90 334 -9)" d="M252-245h6V70h-6z"/><path id="_Rectángulo_29" data-name="&lt;Rectángulo&gt;" class="cls-4" transform="rotate(-90 335 -42)" d="M254-247h6V6h-6z"/></g><g id="_Grupo_49" data-name="&lt;Grupo&gt;"><g id="_Grupo_50" data-name="&lt;Grupo&gt;"><path id="_Rectángulo_30" data-name="&lt;Rectángulo&gt;" class="cls-4" transform="rotate(-135 185 -25)" d="M151-127h3v46h-3z"/><path id="_Rectángulo_31" data-name="&lt;Rectángulo&gt;" class="cls-4" transform="rotate(135 120 -25)" d="M151-127h3v46h-3z"/></g><g id="_Grupo_51" data-name="&lt;Grupo&gt;"><path id="_Trazado_77" data-name="&lt;Trazado&gt;" class="cls-4" d="M138 68l-3 2-17-17-3-3 2-3 3 4 18 17z"/></g><g id="_Grupo_52" data-name="&lt;Grupo&gt;"><path id="_Rectángulo_32" data-name="&lt;Rectángulo&gt;" class="cls-4" transform="rotate(-135 215 -25)" d="M181-127h3v46h-3z"/><path id="_Rectángulo_33" data-name="&lt;Rectángulo&gt;" class="cls-4" transform="rotate(135 150 -25)" d="M181-127h3v46h-3z"/></g><g id="_Grupo_53" data-name="&lt;Grupo&gt;"><path id="_Rectángulo_34" data-name="&lt;Rectángulo&gt;" class="cls-4" transform="rotate(-135 245 -25)" d="M211-127h3v46h-3z"/><path id="_Rectángulo_35" data-name="&lt;Rectángulo&gt;" class="cls-4" transform="rotate(135 180 -25)" d="M211-127h3v46h-3z"/></g><g id="_Grupo_54" data-name="&lt;Grupo&gt;"><path id="_Rectángulo_36" data-name="&lt;Rectángulo&gt;" class="cls-4" transform="rotate(-135 276 -25)" d="M242-127h3v46h-3z"/><path id="_Rectángulo_37" data-name="&lt;Rectángulo&gt;" class="cls-4" transform="rotate(135 211 -25)" d="M242-127h3v46h-3z"/></g><g id="_Grupo_55" data-name="&lt;Grupo&gt;"><path id="_Rectángulo_38" data-name="&lt;Rectángulo&gt;" class="cls-4" transform="rotate(-135 306 -25)" d="M272-127h3v46h-3z"/><path id="_Rectángulo_39" data-name="&lt;Rectángulo&gt;" class="cls-4" transform="rotate(135 241 -25)" d="M272-127h3v46h-3z"/></g><g id="_Grupo_56" data-name="&lt;Grupo&gt;"><path id="_Rectángulo_40" data-name="&lt;Rectángulo&gt;" class="cls-4" transform="rotate(-135 336 -25)" d="M302-127h3v46h-3z"/><path id="_Rectángulo_41" data-name="&lt;Rectángulo&gt;" class="cls-4" transform="rotate(135 271 -25)" d="M302-127h3v46h-3z"/></g><g id="_Grupo_57" data-name="&lt;Grupo&gt;"><path id="_Rectángulo_42" data-name="&lt;Rectángulo&gt;" class="cls-4" transform="rotate(-135 367 -25)" d="M333-127h3v46h-3z"/><path id="_Rectángulo_43" data-name="&lt;Rectángulo&gt;" class="cls-4" transform="rotate(135 302 -25)" d="M333-127h3v46h-3z"/></g><g id="_Grupo_58" data-name="&lt;Grupo&gt;"><path id="_Rectángulo_44" data-name="&lt;Rectángulo&gt;" class="cls-4" transform="rotate(-135 397 -25)" d="M363-127h3v46h-3z"/><path id="_Trazado_78" data-name="&lt;Trazado&gt;" class="cls-4" d="M400 51l-19 19-2-2 15-15 4-4 2 2z"/><path id="_Rectángulo_45" data-name="&lt;Rectángulo&gt;" class="cls-4" transform="rotate(135 332 -25)" d="M363-127h3v46h-3z"/></g></g></g><path id="_Trazado_79" data-name="&lt;Trazado&gt;" class="cls-4" d="M130 33l3 7-32 33-3-6 32-34z"/><path id="_Trazado_80" data-name="&lt;Trazado&gt;" class="cls-4" d="M416 67l-3 6-17-18-2-2-13-13 3-7 14 16 2 2 16 16z"/></g><path id="_Rectángulo_46" data-name="&lt;Rectángulo&gt;" class="cls-4" d="M152 126h58v7h-58z"/></g><g id="_Grupo_59" data-name="&lt;Grupo&gt;"><g id="_Grupo_60" data-name="&lt;Grupo&gt;"><circle id="_Trazado_81" data-name="&lt;Trazado&gt;" class="cls-4" cx="349" cy="230" r="12" transform="rotate(-13 1058 308)"/><circle id="_Trazado_82" data-name="&lt;Trazado&gt;" class="cls-4" cx="355" cy="215" r="12" transform="rotate(-13 1064 293)"/><circle id="_Trazado_83" data-name="&lt;Trazado&gt;" class="cls-4" cx="359" cy="203" r="12" transform="rotate(-13 1068 280)"/><circle id="_Trazado_84" data-name="&lt;Trazado&gt;" class="cls-4" cx="367" cy="211" r="12" transform="rotate(-13 1076 289)"/><circle id="_Trazado_85" data-name="&lt;Trazado&gt;" class="cls-4" cx="366" cy="230" r="12" transform="rotate(-13 1076 307)"/></g><g id="_Grupo_61" data-name="&lt;Grupo&gt;"><path id="_Trazado_86" data-name="&lt;Trazado&gt;" class="cls-11" d="M359 260a1 1 0 0 1-1-1v-44a1 1 0 0 1 1-1 1 1 0 0 1 1 1v44a1 1 0 0 1-1 1z" transform="translate(0 157)"/><path id="_Trazado_87" data-name="&lt;Trazado&gt;" class="cls-11" d="M359 237a1 1 0 0 1 0-2l5-4a1 1 0 0 1 1 0 1 1 0 0 1 0 1l-5 5a1 1 0 0 1-1 0z" transform="translate(0 157)"/><path id="_Trazado_88" data-name="&lt;Trazado&gt;" class="cls-11" d="M360 223a1 1 0 0 0 0-2l-5-4a1 1 0 0 0-1 0 1 1 0 0 0 0 1l5 5a1 1 0 0 0 1 0z" transform="translate(0 157)"/></g></g><g id="_Grupo_62" data-name="&lt;Grupo&gt;"><g id="_Grupo_63" data-name="&lt;Grupo&gt;"><circle id="_Trazado_89" data-name="&lt;Trazado&gt;" class="cls-4" cx="93" cy="228" r="15" transform="rotate(-13 803 306)"/><circle id="_Trazado_90" data-name="&lt;Trazado&gt;" class="cls-4" cx="101" cy="210" r="15" transform="rotate(-13 811 288)"/><circle id="_Trazado_91" data-name="&lt;Trazado&gt;" class="cls-4" cx="110" cy="196" r="15" transform="rotate(-13 820 273)"/><circle id="_Trazado_92" data-name="&lt;Trazado&gt;" class="cls-4" cx="118" cy="209" r="15" transform="rotate(-13 828 286)"/><circle id="_Trazado_93" data-name="&lt;Trazado&gt;" class="cls-4" cx="110" cy="233" r="15" transform="rotate(-13 821 310)"/><circle id="_Trazado_94" data-name="&lt;Trazado&gt;" class="cls-4" cx="125" cy="228" r="15" transform="rotate(-13 835 306)"/></g><g id="_Grupo_64" data-name="&lt;Grupo&gt;"><path id="_Trazado_95" data-name="&lt;Trazado&gt;" class="cls-11" d="M109 262a1 1 0 0 1-1-1v-54a1 1 0 0 1 1-1 1 1 0 0 1 1 1v54a1 1 0 0 1-1 1z" transform="translate(0 157)"/><path id="_Trazado_96" data-name="&lt;Trazado&gt;" class="cls-11" d="M109 234a1 1 0 0 1 0-2l6-6a1 1 0 0 1 1 1 1 1 0 0 1 0 1l-6 6a1 1 0 0 1-1 0z" transform="translate(0 157)"/><path id="_Trazado_97" data-name="&lt;Trazado&gt;" class="cls-11" d="M110 217a1 1 0 0 0 0-2l-6-6a1 1 0 0 0-1 0 1 1 0 0 0 0 2l5 6a1 1 0 0 0 2 0z" transform="translate(0 157)"/></g></g></g></g><path id="_Trazado_98" data-name="&lt;Trazado&gt;" class="cls-4" d="M346 120h-54a8 8 0 0 1 7-7 8 8 0 0 1 14-3 8 8 0 0 1 10 0 8 8 0 0 1 13 3 8 8 0 0 1 10 7z" transform="translate(0 157)"/><path id="_Trazado_99" data-name="&lt;Trazado&gt;" class="cls-4" d="M420 166h-48a8 8 0 0 1 7-6h2a8 8 0 0 1 12-3 8 8 0 0 1 9 2 8 8 0 0 1 15 3 8 8 0 0 1 0 2 8 8 0 0 1 3 2z" transform="translate(0 157)"/><path id="_Trazado_100" data-name="&lt;Trazado&gt;" class="cls-4" d="M137 132h-35a8 8 0 0 1 5-7 8 8 0 0 1 13-1 8 8 0 0 1 13 3 8 8 0 0 1 4 5z" transform="translate(0 157)"/><path id="_Trazado_101" data-name="&lt;Trazado&gt;" class="cls-4" d="M132 280h-10c1-2 3-4 5-4s5 2 5 4z" transform="translate(0 157)"/><g id="_Grupo_65" data-name="&lt;Grupo&gt;"><path id="_Trazado_102" data-name="&lt;Trazado&gt;" class="cls-4" d="M397 378h-17c0-3 4-6 8-6s8 3 9 6z" transform="translate(0 157)"/><path id="_Trazado_103" data-name="&lt;Trazado&gt;" class="cls-4" d="M412 378h-25c1-5 6-9 12-9s12 4 13 9z" transform="translate(0 157)"/></g><path id="_Trazado_104" data-name="&lt;Trazado&gt;" class="cls-4" d="M399 299h-6a3 3 0 0 1 6 0z" transform="translate(0 157)"/><path id="_Trazado_105" data-name="&lt;Trazado&gt;" class="cls-4" d="M120 310h-7a3 3 0 0 1 7 0z" transform="translate(0 157)"/><g id="_Grupo_66" data-name="&lt;Grupo&gt;"><path id="_Trazado_106" data-name="&lt;Trazado&gt;" class="cls-4" d="M167 312h1l2-3h-1l-2 3z" transform="translate(0 157)"/><path id="_Trazado_107" data-name="&lt;Trazado&gt;" class="cls-4" d="M168 312l-1-4h-1v1l1 3h1z" transform="translate(0 157)"/><path id="_Trazado_108" data-name="&lt;Trazado&gt;" class="cls-4" d="M167 312h1l2-1v-1l-3 2z" transform="translate(0 157)"/></g><g id="_Grupo_67" data-name="&lt;Grupo&gt;"><path id="_Trazado_109" data-name="&lt;Trazado&gt;" class="cls-4" d="M392 316l2-4-2 3v1z" transform="translate(0 157)"/><path id="_Trazado_110" data-name="&lt;Trazado&gt;" class="cls-4" d="M392 316v-1l-1-3v-1 1l1 3v1z" transform="translate(0 157)"/><path id="_Trazado_111" data-name="&lt;Trazado&gt;" class="cls-4" d="M392 316l2-2-2 1v1z" transform="translate(0 157)"/></g><g id="_Grupo_68" data-name="&lt;Grupo&gt;"><path id="_Trazado_112" data-name="&lt;Trazado&gt;" class="cls-4" d="M115 351a1 1 0 0 0 1-1l1-10a1 1 0 0 0 0-1 1 1 0 0 0-1 1l-1 10a1 1 0 0 0 0 1z" transform="translate(0 157)"/><path id="_Trazado_113" data-name="&lt;Trazado&gt;" class="cls-4" d="M116 351a1 1 0 0 0 0-2l-6-8a1 1 0 0 0-2 0 1 1 0 0 0 0 2l7 7a1 1 0 0 0 1 1z" transform="translate(0 157)"/><path id="_Trazado_114" data-name="&lt;Trazado&gt;" class="cls-4" d="M115 351a1 1 0 0 0 1-1l4-6a1 1 0 0 0 0-1 1 1 0 0 0-1 0l-4 7a1 1 0 0 0 0 1z" transform="translate(0 157)"/></g><g id="_Grupo_69" data-name="&lt;Grupo&gt;"><path id="_Trazado_115" data-name="&lt;Trazado&gt;" class="cls-4" d="M396 347a1 1 0 0 0 0-1l-2-8a1 1 0 0 0-1 0 1 1 0 0 0 0 1l2 7a1 1 0 0 0 1 1z" transform="translate(0 157)"/><path id="_Trazado_116" data-name="&lt;Trazado&gt;" class="cls-4" d="M396 346a1 1 0 0 0 0-1l-7-3a1 1 0 0 0-1 0 1 1 0 0 0 0 1l7 4a1 1 0 0 0 1-1z" transform="translate(0 157)"/><path id="_Trazado_117" data-name="&lt;Trazado&gt;" class="cls-4" d="M395 347a1 1 0 0 0 1-1l1-5a1 1 0 0 0-1-1 1 1 0 0 0 0 1l-1 5a1 1 0 0 0 0 1z" transform="translate(0 157)"/></g><g id="_Grupo_70" data-name="&lt;Grupo&gt;"><path id="_Trazado_118" data-name="&lt;Trazado&gt;" class="cls-4" d="M193 319a1 1 0 0 0 1 0l4-6a1 1 0 0 0-1-1l-4 6a1 1 0 0 0 0 1z" transform="translate(0 157)"/><path id="_Trazado_119" data-name="&lt;Trazado&gt;" class="cls-4" d="M193 319a1 1 0 0 0 1-1l-2-6a1 1 0 0 0-1-1 1 1 0 0 0 0 1l2 7z" transform="translate(0 157)"/><path id="_Trazado_120" data-name="&lt;Trazado&gt;" class="cls-4" d="M193 319h1l4-3v-1h-1l-4 3v1z" transform="translate(0 157)"/></g><g id="_Grupo_71" data-name="&lt;Grupo&gt;"><path id="_Trazado_121" data-name="&lt;Trazado&gt;" class="cls-4" d="M467 316a1 1 0 0 0 1 0l-1-7a1 1 0 0 0 0-1 1 1 0 0 0-1 1l1 7z" transform="translate(0 157)"/><path id="_Trazado_122" data-name="&lt;Trazado&gt;" class="cls-4" d="M467 316a1 1 0 0 0 0-1l-5-5a1 1 0 0 0-1 1l6 5z" transform="translate(0 157)"/><path id="_Trazado_123" data-name="&lt;Trazado&gt;" class="cls-4" d="M467 316h1l1-5-2 4v1z" transform="translate(0 157)"/></g><g id="_Grupo_72" data-name="&lt;Grupo&gt;"><path id="_Trazado_124" data-name="&lt;Trazado&gt;" class="cls-4" d="M139 317v-7a1 1 0 0 0 0-1 1 1 0 0 0-1 1v7a1 1 0 0 0 1 0z" transform="translate(0 157)"/><path id="_Trazado_125" data-name="&lt;Trazado&gt;" class="cls-4" d="M139 317a1 1 0 0 0 0-1l-5-5a1 1 0 0 0-1 0 1 1 0 0 0 0 1l5 5a1 1 0 0 0 1 0z" transform="translate(0 157)"/><path id="_Trazado_126" data-name="&lt;Trazado&gt;" class="cls-4" d="M139 317l2-5h-1l-2 5h1z" transform="translate(0 157)"/></g><g id="_Grupo_73" data-name="&lt;Grupo&gt;"><g id="_Grupo_74" data-name="&lt;Grupo&gt;"><path id="_Rectángulo_47" data-name="&lt;Rectángulo&gt;" class="cls-12" d="M246 157h1v109h-1z"/><path id="_Rectángulo_48" data-name="&lt;Rectángulo&gt;" class="cls-12" d="M250 157h1v109h-1z"/><path id="_Rectángulo_49" data-name="&lt;Rectángulo&gt;" class="cls-12" d="M255 157h1v109h-1z"/><path id="_Rectángulo_50" data-name="&lt;Rectángulo&gt;" class="cls-12" d="M259 157h1v109h-1z"/></g><g id="_Grupo_75" data-name="&lt;Grupo&gt;"><g id="_Grupo_76" data-name="&lt;Grupo&gt;"><g id="_Grupo_77" data-name="&lt;Grupo&gt;"><path id="_Trazado_127" data-name="&lt;Trazado&gt;" class="cls-9" d="M258 130a7 7 0 0 1-4 6 7 7 0 0 1-3 1h-2a7 7 0 0 1-4-2v-1a7 7 0 0 1-2-4h1l1 2 1 1h1a5 5 0 0 0 2 0h3l1-1a5 5 0 0 0 0-7l-2-2a1 1 0 0 1 0-1v-7a3 3 0 0 1 0-1 3 3 0 0 1 5 0 3 3 0 0 1 0 1v9a3 3 0 0 0 0 2 7 7 0 0 1 2 4z" transform="translate(0 157)"/><path id="_Trazado_128" data-name="&lt;Trazado&gt;" class="cls-8" d="M251 275h5v3h-5z"/></g><path id="_Trazado_129" data-name="&lt;Trazado&gt;" class="cls-12" d="M256 119h-6a1 1 0 0 1 0-1l-5-9a1 1 0 0 1 1-1h15a1 1 0 0 1 0 1l-4 9a1 1 0 0 1-1 1z" transform="translate(0 157)"/><g id="_Grupo_78" data-name="&lt;Grupo&gt;"><path id="_Trazado_130" data-name="&lt;Trazado&gt;" class="cls-5" d="M248 114l2 4a1 1 0 0 0 0 1h2l-2-5z" transform="translate(0 157)"/><path id="_Trazado_131" data-name="&lt;Trazado&gt;" class="cls-7" d="M250 271h-1l3 5h2l-2-5h-2z"/><path id="_Trazado_132" data-name="&lt;Trazado&gt;" class="cls-5" d="M252 271l2 5h2l-2-5h-2z"/><path id="_Trazado_133" data-name="&lt;Trazado&gt;" class="cls-7" d="M256 114h-2l2 5a1 1 0 0 0 1-1z" transform="translate(0 157)"/><path id="_Trazado_134" data-name="&lt;Trazado&gt;" class="cls-5" d="M258 272v-1h-2l1 4 1-3z"/><path id="_Trazado_135" data-name="&lt;Trazado&gt;" class="cls-7" d="M259 271h-1v1l1-1z"/></g></g><g id="_Grupo_79" data-name="&lt;Grupo&gt;"><g id="_Grupo_80" data-name="&lt;Grupo&gt;"><path id="_Trazado_136" data-name="&lt;Trazado&gt;" class="cls-8" d="M247 133l-2 2v-1l1-2z" transform="translate(0 157)"/></g><g id="_Grupo_81" data-name="&lt;Grupo&gt;"><path id="_Trazado_137" data-name="&lt;Trazado&gt;" class="cls-8" d="M254 136l-3-3 1-1z" transform="translate(0 157)"/></g><g id="_Grupo_82" data-name="&lt;Grupo&gt;"><path id="_Trazado_138" data-name="&lt;Trazado&gt;" class="cls-8" d="M250 133v4h-1v-4z" transform="translate(0 157)"/></g></g><g id="_Grupo_83" data-name="&lt;Grupo&gt;"><g id="_Grupo_84" data-name="&lt;Grupo&gt;"><path id="_Trazado_139" data-name="&lt;Trazado&gt;" class="cls-7" d="M235 146l11-14h1l-12 14z" transform="translate(0 157)"/></g><g id="_Grupo_85" data-name="&lt;Grupo&gt;"><path id="_Trazado_140" data-name="&lt;Trazado&gt;" class="cls-7" d="M263 146h-1l-11-14h1l11 14z" transform="translate(0 157)"/></g><g id="_Grupo_86" data-name="&lt;Grupo&gt;"><path id="_Trazado_141" data-name="&lt;Trazado&gt;" class="cls-7" d="M249 147v-14 14z" transform="translate(0 157)"/></g></g></g></g><g id="_Grupo_87" data-name="&lt;Grupo&gt;"><g id="_Grupo_88" data-name="&lt;Grupo&gt;"><path id="_Trazado_142" data-name="&lt;Trazado&gt;" class="cls-13" d="M288 319h-71s13-5 13-38h45v6c2 27 13 32 13 32z" transform="translate(0 157)"/><rect id="_Trazado_143" data-name="&lt;Trazado&gt;" class="cls-13" x="216" y="476" width="73" height="1" rx="0" ry="0"/></g><path id="_Trazado_144" data-name="&lt;Trazado&gt;" class="cls-14" d="M329 190v91a8 8 0 0 1-8 8H185a8 8 0 0 1-8-8v-91a8 8 0 0 1 6-8 8 8 0 0 1 2 0h136a8 8 0 0 1 8 8z" transform="translate(0 157)"/><path id="_Trazado_145" data-name="&lt;Trazado&gt;" class="cls-8" d="M329 190v84H177v-86l1-1a8 8 0 0 1 0-2l1-1a8 8 0 0 1 3-2h142a8 8 0 0 1 2 2 8 8 0 0 1 3 6z" transform="translate(0 157)"/><g id="_Grupo_89" data-name="&lt;Grupo&gt;"><path id="_Trazado_146" data-name="&lt;Trazado&gt;" class="cls-14" d="M286 319h-71s13-5 13-38h45v6c2 27 13 32 13 32z" transform="translate(0 157)"/><rect id="_Trazado_147" data-name="&lt;Trazado&gt;" class="cls-13" x="214" y="476" width="73" height="1" rx="0" ry="0"/></g><path id="_Trazado_148" data-name="&lt;Trazado&gt;" class="cls-13" d="M273 289a8 8 0 0 1-2 0c-21 0-24 17-30 24a19 19 0 0 1-9 6h-17s13-5 13-38h45v8z" transform="translate(0 157)"/><path id="_Trazado_149" data-name="&lt;Trazado&gt;" class="cls-7" d="M326 190v91a8 8 0 0 1-8 8H183a8 8 0 0 1-8-8v-91a8 8 0 0 1 5-8 8 8 0 0 1 3 0h135a8 8 0 0 1 8 8z" transform="translate(0 157)"/><path id="_Trazado_150" data-name="&lt;Trazado&gt;" d="M326 190v84H175v-87a8 8 0 0 1 1-2l1-1a8 8 0 0 1 3-2h141a8 8 0 0 1 2 2h1a8 8 0 0 1 2 6z" transform="translate(0 157)" fill="#37a8ee"/><circle id="_Trazado_151" data-name="&lt;Trazado&gt;" class="cls-14" cx="250" cy="438" r="4"/><path id="_Trazado_compuesto_2" data-name="&lt;Trazado compuesto&gt;" class="cls-9" d="M324 184h-1a8 8 0 0 0-2-2H181a8 8 0 0 0-3 2h-1l-1 1a8 8 0 0 0-1 2 6 6 0 0 0 0 1v1a3 3 0 0 0 0 1v84h151v-84a8 8 0 0 0-2-6zm-4 82H181v-76a2 2 0 0 1 2-2h135a2 2 0 0 1 2 2z" transform="translate(0 157)"/></g><path id="_Trazado_152" data-name="&lt;Trazado&gt;" d="M318 182v65a5 5 0 0 1-6 5H193a5 5 0 0 1-6-5v-65z" transform="translate(0 157)" style="mix-blend-mode:multiply" fill="#d7cdcd"/><g id="_Grupo_90" data-name="&lt;Grupo&gt;"><rect id="_Trazado_153" data-name="&lt;Trazado&gt;" x="184" y="300" width="130" height="102" rx="5" ry="5" fill="#e8e6e6"/><path id="_Trazado_154" data-name="&lt;Trazado&gt;" class="cls-5" d="M314 149v18H184v-18a5 5 0 0 1 5-6h120a5 5 0 0 1 5 6z" transform="translate(0 157)"/><path id="_Trazado_155" data-name="&lt;Trazado&gt;" class="cls-7" d="M303 159h-67a4 4 0 0 1-4-4 4 4 0 0 1 4-4h67a4 4 0 0 1 4 4 4 4 0 0 1-4 4z" transform="translate(0 157)"/><circle id="_Trazado_156" data-name="&lt;Trazado&gt;" cx="196" cy="312" r="4" fill="#e73a3a"/><circle id="_Trazado_157" data-name="&lt;Trazado&gt;" cx="206" cy="312" r="4" fill="#eed467"/><circle id="_Trazado_158" data-name="&lt;Trazado&gt;" cx="215" cy="312" r="4" fill="#63cd63"/><rect id="_Rectángulo_51" data-name="&lt;Rectángulo&gt;" class="cls-21" x="193" y="337" width="57" height="49" rx="5" ry="5"/><rect id="_Rectángulo_52" data-name="&lt;Rectángulo&gt;" class="cls-7" x="191" y="335" width="57" height="49" rx="5" ry="5"/><rect id="_Rectángulo_53" data-name="&lt;Rectángulo&gt;" class="cls-7" x="252" y="339" width="57" height="3" rx="1" ry="1"/><rect id="_Rectángulo_54" data-name="&lt;Rectángulo&gt;" class="cls-7" x="252" y="346" width="57" height="3" rx="1" ry="1"/><rect id="_Rectángulo_55" data-name="&lt;Rectángulo&gt;" class="cls-7" x="252" y="353" width="57" height="3" rx="1" ry="1"/><rect id="_Rectángulo_56" data-name="&lt;Rectángulo&gt;" class="cls-7" x="252" y="360" width="57" height="3" rx="1" ry="1"/><rect id="_Rectángulo_57" data-name="&lt;Rectángulo&gt;" class="cls-7" x="252" y="367" width="57" height="3" rx="1" ry="1"/><rect id="_Rectángulo_58" data-name="&lt;Rectángulo&gt;" class="cls-7" x="252" y="387" width="57" height="3" rx="1" ry="1"/><path id="_Trazado_159" data-name="&lt;Trazado&gt;" class="cls-7" d="M307 241H193a2 2 0 0 1-2-2 2 2 0 0 1 2-1h114a2 2 0 0 1 2 1 2 2 0 0 1-2 2z" transform="translate(0 157)"/><circle id="_Trazado_160" data-name="&lt;Trazado&gt;" class="cls-5" cx="258" cy="379" r="5"/><circle id="_Trazado_161" data-name="&lt;Trazado&gt;" class="cls-7" cx="281" cy="379" r="5"/><circle id="_Trazado_162" data-name="&lt;Trazado&gt;" class="cls-5" cx="304" cy="379" r="5"/><path id="_Trazado_163" data-name="&lt;Trazado&gt;" class="cls-21" d="M184 324h130v2H184z"/></g><path id="_Trazado_164" data-name="&lt;Trazado&gt;" class="cls-4" d="M465 330H39a5 5 0 0 1-5-5 5 5 0 0 1 5-5h426a5 5 0 0 1 5 5 5 5 0 0 1-5 5z" transform="translate(0 157)"/><circle class="cls-22" cx="335" cy="294" r="2"/><circle class="cls-22" cx="153" cy="319" r="2"/><circle class="cls-22" cx="203" cy="412" r="2"/><circle class="cls-22" cx="338" cy="350" r="2"/><path class="cls-23" d="M281 282l5 5M286 282l-5 5M179 279l4 3M183 279l-4 3M155 385l4 3M159 385l-4 3M322 394l4 3M326 394l-4 3M237 240v30M233 252v18M269 233v37M273 257v13"/></g></g></svg>